<svg id="Capa_1" data-name="Capa 1" xmlns="http://www.w3.org/2000/svg" viewBox="0 0 275.07 299.8"><defs><style>.cls-1{fill:#fff;}</style></defs><title>weight</title><path class="cls-1" d="M287.2,282.15,255.37,104.57a15,15,0,0,0-14.76-12.35H187.67a53.86,53.86,0,1,0-75.54,0H59.19a15,15,0,0,0-14.76,12.35L12.6,282.15A15,15,0,0,0,27.36,299.8H272.43a15,15,0,0,0,14.77-17.65ZM149.9,30A23.87,23.87,0,1,1,126,53.86,23.88,23.88,0,0,1,149.9,30ZM146,232.13a4.46,4.46,0,0,1-3.93,2.33H135a4.47,4.47,0,0,1-3.86-2.21l-17.51-29.89-11.2,11.43v13.77a6.91,6.91,0,0,1-13.81,0V173a6.91,6.91,0,1,1,13.81,0v23.47L129,167.5a4.47,4.47,0,0,1,3.29-1.45h6.07a4.47,4.47,0,0,1,3.21,7.58L123.13,192.7l22.67,34.86A4.48,4.48,0,0,1,146,232.13ZM214,223a4.49,4.49,0,0,1-1.68,3.49,41.4,41.4,0,0,1-10.89,5.92,45.78,45.78,0,0,1-16.68,3.2,37.38,37.38,0,0,1-18.72-4.51,28.69,28.69,0,0,1-12-12.87,41.59,41.59,0,0,1-4-18.23,39.35,39.35,0,0,1,4.48-19,30.12,30.12,0,0,1,13.11-12.74q6.57-3.4,16.38-3.4,12.73,0,19.9,5.34a23.17,23.17,0,0,1,5.25,5.4,7.05,7.05,0,0,1-4.49,11h0a6.82,6.82,0,0,1-7-3.07,14,14,0,0,0-3.65-3.9,16.39,16.39,0,0,0-10-2.92q-9.06,0-14.4,5.74t-5.34,17q0,12.18,5.41,18.27a18.08,18.08,0,0,0,14.19,6.09,23.9,23.9,0,0,0,8.7-1.7,29.8,29.8,0,0,0,7.49-4.13v-8.68H190a5.77,5.77,0,1,1,0-11.53h19.53a4.47,4.47,0,0,1,4.47,4.47V223Z" transform="translate(-12.36 0)"/></svg>